<svg xmlns="http://www.w3.org/2000/svg" viewBox="0 0 430 120" role="img" aria-label="Magma Cursos">
  <defs>
    <style>
      @import url('https://fonts.googleapis.com/css2?family=Archivo:wght@700;900&amp;display=swap');
      .wordmark{font-family:'Archivo','Arial Black',sans-serif;font-weight:900;letter-spacing:.5px}
      .sub{font-family:'Archivo',Arial,sans-serif;font-weight:700;letter-spacing:9px}
    </style>
  </defs>
  <g transform="translate(6,5) scale(1)">
    <polygon points="50,8 90,31 90,79 50,102 10,79 10,31" fill="#232c3d" stroke="#232c3d" stroke-width="12" stroke-linejoin="round"/>
    <polygon points="50,15 84.5,35 84.5,75 50,95 15.5,75 15.5,35" fill="#ffffff" stroke="#ffffff" stroke-width="7" stroke-linejoin="round"/>
    <polygon points="50,19 81,37 81,73 50,91 19,73 19,37" fill="#c8102e" stroke="#c8102e" stroke-width="7" stroke-linejoin="round"/>
    <g transform="translate(50,55)">
      <g fill="#ffffff">
        <rect x="-9" y="-27" width="18" height="54" rx="3.5"/>
        <rect x="-9" y="-27" width="18" height="54" rx="3.5" transform="rotate(60)"/>
        <rect x="-9" y="-27" width="18" height="54" rx="3.5" transform="rotate(-60)"/>
      </g>
      <g fill="#1d4f91">
        <rect x="-6.4" y="-24.4" width="12.8" height="48.8" rx="2.4"/>
        <rect x="-6.4" y="-24.4" width="12.8" height="48.8" rx="2.4" transform="rotate(60)"/>
        <rect x="-6.4" y="-24.4" width="12.8" height="48.8" rx="2.4" transform="rotate(-60)"/>
      </g>
      <circle cx="0" cy="-17.5" r="3.1" fill="#ffffff"/>
      <rect x="-1.7" y="-15" width="3.4" height="33" rx="1.7" fill="#ffffff"/>
      <path d="M-5 -10 C 6 -7.5, 6 -3.5, 0 -1.5 C -6 0.5, -6 4.5, 0 6.5 C 5 8.2, 5 11.5, -3 13.5"
            fill="none" stroke="#ffffff" stroke-width="2.6" stroke-linecap="round"/>
    </g>
  </g>
  <text class="wordmark" x="122" y="72" font-size="56" fill="#1b2a4d">MAGMA</text>
  <text class="sub" x="126" y="102" font-size="20" fill="#1b2a4d">CURSOS</text>
</svg>
