<svg xmlns="http://www.w3.org/2000/svg" viewBox="-5 0 110 110" role="img" aria-label="Símbolo Magma Cursos — Estrela da Vida">
  <!-- hexágono grafite externo (cantos arredondados via stroke round) -->
  <polygon points="50,8 90,31 90,79 50,102 10,79 10,31" fill="#232c3d" stroke="#232c3d" stroke-width="12" stroke-linejoin="round"/>
  <!-- filete branco -->
  <polygon points="50,15 84.5,35 84.5,75 50,95 15.5,75 15.5,35" fill="#ffffff" stroke="#ffffff" stroke-width="7" stroke-linejoin="round"/>
  <!-- corpo vermelho -->
  <polygon points="50,19 81,37 81,73 50,91 19,73 19,37" fill="#c8102e" stroke="#c8102e" stroke-width="7" stroke-linejoin="round"/>
  <!-- Estrela da Vida -->
  <g transform="translate(50,55)">
    <!-- contorno branco (barras maiores por trás) -->
    <g fill="#ffffff">
      <rect x="-9" y="-27" width="18" height="54" rx="3.5"/>
      <rect x="-9" y="-27" width="18" height="54" rx="3.5" transform="rotate(60)"/>
      <rect x="-9" y="-27" width="18" height="54" rx="3.5" transform="rotate(-60)"/>
    </g>
    <!-- barras azuis -->
    <g fill="#1d4f91">
      <rect x="-6.4" y="-24.4" width="12.8" height="48.8" rx="2.4"/>
      <rect x="-6.4" y="-24.4" width="12.8" height="48.8" rx="2.4" transform="rotate(60)"/>
      <rect x="-6.4" y="-24.4" width="12.8" height="48.8" rx="2.4" transform="rotate(-60)"/>
    </g>
    <!-- bastão de Asclépio -->
    <circle cx="0" cy="-17.5" r="3.1" fill="#ffffff"/>
    <rect x="-1.7" y="-15" width="3.4" height="33" rx="1.7" fill="#ffffff"/>
    <path d="M-5 -10 C 6 -7.5, 6 -3.5, 0 -1.5 C -6 0.5, -6 4.5, 0 6.5 C 5 8.2, 5 11.5, -3 13.5"
          fill="none" stroke="#ffffff" stroke-width="2.6" stroke-linecap="round"/>
  </g>
</svg>
